# xmcd
#
# Track frame offsets:
#	150
#	13881
#	25774
#	37950
#	51586
#	62713
#	81166
#	94808
#	106892
#	117923
#	133808
#	143318
#
# Disc length: 2143 seconds
#
# Revision: 1
# Processed by: cddbd v1.5.1PL0 Copyright (c) Steve Scherf et al.
# Submitted via: EasyCDDAExtractor 7.0.6.1
#
DISCID=9d085d0c
DTITLE=Lindsay Laurie - Songs Of Lindsay Laurie
DYEAR=1900
DGENRE=Country
TTITLE0=High Country
TTITLE1=Use My Phone
TTITLE2=Abandoned Homestead
TTITLE3=Never Trust A Stranger
TTITLE4=Don't Cross The Picket Line
TTITLE5=Farm Boy
TTITLE6=Nobodies Listening
TTITLE7=Goldwatch
TTITLE8=Warrigul Woman
TTITLE9=Worn Out
TTITLE10=Getting On With Life
TTITLE11=100 Xmas Dinners
EXTD=
EXTT0=
EXTT1=
EXTT2=
EXTT3=
EXTT4=
EXTT5=
EXTT6=
EXTT7=
EXTT8=
EXTT9=
EXTT10=
EXTT11=
PLAYORDER=
